<?xml version="1.0" encoding="UTF-8" standalone="no"?>
<!DOCTYPE svg PUBLIC "-//W3C//DTD SVG 1.1//EN"
 "http://www.w3.org/Graphics/SVG/1.1/DTD/svg11.dtd">
<!-- Generated by graphviz version 5.0.1 (0)
 -->
<!-- Pages: 1 -->
<svg width="322pt" height="191pt"
 viewBox="0.00 0.00 322.00 191.00" xmlns="http://www.w3.org/2000/svg" xmlns:xlink="http://www.w3.org/1999/xlink">
<g id="graph0" class="graph" transform="scale(1 1) rotate(0) translate(4 187)">
<polygon fill="white" stroke="none" points="-4,4 -4,-187 318,-187 318,4 -4,4"/>
<!-- 824634802240 -->
<g id="node1" class="node">
<title>824634802240</title>
<path fill="lightblue" stroke="lightblue" d="M137.5,-146.5C137.5,-146.5 183.5,-146.5 183.5,-146.5 189.5,-146.5 195.5,-152.5 195.5,-158.5 195.5,-158.5 195.5,-170.5 195.5,-170.5 195.5,-176.5 189.5,-182.5 183.5,-182.5 183.5,-182.5 137.5,-182.5 137.5,-182.5 131.5,-182.5 125.5,-176.5 125.5,-170.5 125.5,-170.5 125.5,-158.5 125.5,-158.5 125.5,-152.5 131.5,-146.5 137.5,-146.5"/>
<text text-anchor="middle" x="135.5" y="-160.8" font-family="Times,serif" font-size="14.00"> </text>
<polyline fill="none" stroke="lightblue" points="145.5,-146.5 145.5,-182.5"/>
<text text-anchor="middle" x="160.5" y="-160.8" font-family="Times,serif" font-size="14.00">10</text>
<polyline fill="none" stroke="lightblue" points="175.5,-146.5 175.5,-182.5"/>
<text text-anchor="middle" x="185.5" y="-160.8" font-family="Times,serif" font-size="14.00"> </text>
</g>
<!-- 824634802304 -->
<g id="node2" class="node">
<title>824634802304</title>
<path fill="lightblue" stroke="lightblue" d="M75,-73.5C75,-73.5 114,-73.5 114,-73.5 120,-73.5 126,-79.5 126,-85.5 126,-85.5 126,-97.5 126,-97.5 126,-103.5 120,-109.5 114,-109.5 114,-109.5 75,-109.5 75,-109.5 69,-109.5 63,-103.5 63,-97.5 63,-97.5 63,-85.5 63,-85.5 63,-79.5 69,-73.5 75,-73.5"/>
<text text-anchor="middle" x="73" y="-87.8" font-family="Times,serif" font-size="14.00"> </text>
<polyline fill="none" stroke="lightblue" points="83,-73.5 83,-109.5"/>
<text text-anchor="middle" x="94.5" y="-87.8" font-family="Times,serif" font-size="14.00">5</text>
<polyline fill="none" stroke="lightblue" points="106,-73.5 106,-109.5"/>
<text text-anchor="middle" x="116" y="-87.8" font-family="Times,serif" font-size="14.00"> </text>
</g>
<!-- 824634802240&#45;&gt;824634802304 -->
<g id="edge1" class="edge">
<title>824634802240:l&#45;&gt;824634802304:v</title>
<path fill="none" stroke="black" d="M135.5,-146C135.5,-125.92 107.38,-131.04 97.72,-119.62"/>
<polygon fill="black" stroke="black" points="100.99,-118.37 94.5,-110 94.35,-120.59 100.99,-118.37"/>
</g>
<!-- 824634802368 -->
<g id="node3" class="node">
<title>824634802368</title>
<path fill="lightblue" stroke="lightblue" d="M203.5,-73.5C203.5,-73.5 249.5,-73.5 249.5,-73.5 255.5,-73.5 261.5,-79.5 261.5,-85.5 261.5,-85.5 261.5,-97.5 261.5,-97.5 261.5,-103.5 255.5,-109.5 249.5,-109.5 249.5,-109.5 203.5,-109.5 203.5,-109.5 197.5,-109.5 191.5,-103.5 191.5,-97.5 191.5,-97.5 191.5,-85.5 191.5,-85.5 191.5,-79.5 197.5,-73.5 203.5,-73.5"/>
<text text-anchor="middle" x="201.5" y="-87.8" font-family="Times,serif" font-size="14.00"> </text>
<polyline fill="none" stroke="lightblue" points="211.5,-73.5 211.5,-109.5"/>
<text text-anchor="middle" x="226.5" y="-87.8" font-family="Times,serif" font-size="14.00">20</text>
<polyline fill="none" stroke="lightblue" points="241.5,-73.5 241.5,-109.5"/>
<text text-anchor="middle" x="251.5" y="-87.8" font-family="Times,serif" font-size="14.00"> </text>
</g>
<!-- 824634802240&#45;&gt;824634802368 -->
<g id="edge2" class="edge">
<title>824634802240:r&#45;&gt;824634802368:v</title>
<path fill="none" stroke="black" d="M185.5,-146C185.5,-125.92 213.62,-131.04 223.28,-119.62"/>
<polygon fill="black" stroke="black" points="226.65,-120.59 226.5,-110 220.01,-118.37 226.65,-120.59"/>
</g>
<!-- 824634802432 -->
<g id="node4" class="node">
<title>824634802432</title>
<path fill="lightblue" stroke="lightblue" d="M12,-0.5C12,-0.5 51,-0.5 51,-0.5 57,-0.5 63,-6.5 63,-12.5 63,-12.5 63,-24.5 63,-24.5 63,-30.5 57,-36.5 51,-36.5 51,-36.5 12,-36.5 12,-36.5 6,-36.5 0,-30.5 0,-24.5 0,-24.5 0,-12.5 0,-12.5 0,-6.5 6,-0.5 12,-0.5"/>
<text text-anchor="middle" x="10" y="-14.8" font-family="Times,serif" font-size="14.00"> </text>
<polyline fill="none" stroke="lightblue" points="20,-0.5 20,-36.5"/>
<text text-anchor="middle" x="31.5" y="-14.8" font-family="Times,serif" font-size="14.00">9</text>
<polyline fill="none" stroke="lightblue" points="43,-0.5 43,-36.5"/>
<text text-anchor="middle" x="53" y="-14.8" font-family="Times,serif" font-size="14.00"> </text>
</g>
<!-- 824634802304&#45;&gt;824634802432 -->
<g id="edge3" class="edge">
<title>824634802304:l&#45;&gt;824634802432:v</title>
<path fill="none" stroke="black" d="M72.5,-73C72.5,-52.92 44.38,-58.04 34.72,-46.62"/>
<polygon fill="black" stroke="black" points="37.99,-45.37 31.5,-37 31.35,-47.59 37.99,-45.37"/>
</g>
<!-- 824634802496 -->
<g id="node5" class="node">
<title>824634802496</title>
<path fill="lightblue" stroke="lightblue" d="M93.5,-0.5C93.5,-0.5 139.5,-0.5 139.5,-0.5 145.5,-0.5 151.5,-6.5 151.5,-12.5 151.5,-12.5 151.5,-24.5 151.5,-24.5 151.5,-30.5 145.5,-36.5 139.5,-36.5 139.5,-36.5 93.5,-36.5 93.5,-36.5 87.5,-36.5 81.5,-30.5 81.5,-24.5 81.5,-24.5 81.5,-12.5 81.5,-12.5 81.5,-6.5 87.5,-0.5 93.5,-0.5"/>
<text text-anchor="middle" x="91.5" y="-14.8" font-family="Times,serif" font-size="14.00"> </text>
<polyline fill="none" stroke="lightblue" points="101.5,-0.5 101.5,-36.5"/>
<text text-anchor="middle" x="116.5" y="-14.8" font-family="Times,serif" font-size="14.00">18</text>
<polyline fill="none" stroke="lightblue" points="131.5,-0.5 131.5,-36.5"/>
<text text-anchor="middle" x="141.5" y="-14.8" font-family="Times,serif" font-size="14.00"> </text>
</g>
<!-- 824634802304&#45;&gt;824634802496 -->
<g id="edge4" class="edge">
<title>824634802304:r&#45;&gt;824634802496:v</title>
<path fill="none" stroke="black" d="M116.5,-73C116.5,-61 116.5,-55.75 116.5,-47.12"/>
<polygon fill="black" stroke="black" points="120,-47 116.5,-37 113,-47 120,-47"/>
</g>
<!-- 824634802560 -->
<g id="node6" class="node">
<title>824634802560</title>
<path fill="lightblue" stroke="lightblue" d="M182,-0.5C182,-0.5 221,-0.5 221,-0.5 227,-0.5 233,-6.5 233,-12.5 233,-12.5 233,-24.5 233,-24.5 233,-30.5 227,-36.5 221,-36.5 221,-36.5 182,-36.5 182,-36.5 176,-36.5 170,-30.5 170,-24.5 170,-24.5 170,-12.5 170,-12.5 170,-6.5 176,-0.5 182,-0.5"/>
<text text-anchor="middle" x="180" y="-14.8" font-family="Times,serif" font-size="14.00"> </text>
<polyline fill="none" stroke="lightblue" points="190,-0.5 190,-36.5"/>
<text text-anchor="middle" x="201.5" y="-14.8" font-family="Times,serif" font-size="14.00">3</text>
<polyline fill="none" stroke="lightblue" points="213,-0.5 213,-36.5"/>
<text text-anchor="middle" x="223" y="-14.8" font-family="Times,serif" font-size="14.00"> </text>
</g>
<!-- 824634802368&#45;&gt;824634802560 -->
<g id="edge5" class="edge">
<title>824634802368:l&#45;&gt;824634802560:v</title>
<path fill="none" stroke="black" d="M201.5,-73C201.5,-61 201.5,-55.75 201.5,-47.12"/>
<polygon fill="black" stroke="black" points="205,-47 201.5,-37 198,-47 205,-47"/>
</g>
<!-- 824634802624 -->
<g id="node7" class="node">
<title>824634802624</title>
<path fill="lightblue" stroke="lightblue" d="M263,-0.5C263,-0.5 302,-0.5 302,-0.5 308,-0.5 314,-6.5 314,-12.5 314,-12.5 314,-24.5 314,-24.5 314,-30.5 308,-36.5 302,-36.5 302,-36.5 263,-36.5 263,-36.5 257,-36.5 251,-30.5 251,-24.5 251,-24.5 251,-12.5 251,-12.5 251,-6.5 257,-0.5 263,-0.5"/>
<text text-anchor="middle" x="261" y="-14.8" font-family="Times,serif" font-size="14.00"> </text>
<polyline fill="none" stroke="lightblue" points="271,-0.5 271,-36.5"/>
<text text-anchor="middle" x="282.5" y="-14.8" font-family="Times,serif" font-size="14.00">7</text>
<polyline fill="none" stroke="lightblue" points="294,-0.5 294,-36.5"/>
<text text-anchor="middle" x="304" y="-14.8" font-family="Times,serif" font-size="14.00"> </text>
</g>
<!-- 824634802368&#45;&gt;824634802624 -->
<g id="edge6" class="edge">
<title>824634802368:r&#45;&gt;824634802624:v</title>
<path fill="none" stroke="black" d="M251.5,-73C251.5,-56.01 271.57,-56.72 279.41,-46.65"/>
<polygon fill="black" stroke="black" points="282.79,-47.59 282.5,-37 276.12,-45.46 282.79,-47.59"/>
</g>
</g>
</svg>
